<?xml version="1.0" encoding="UTF-8"?> <svg xmlns="http://www.w3.org/2000/svg" xmlns:xlink="http://www.w3.org/1999/xlink" width="880" height="495" viewBox="0 0 880 495"><defs><radialGradient id="radial-gradient" cx="0.5" cy="0.5" r="0.5" gradientUnits="objectBoundingBox"><stop offset="0" stop-color="#051d2b"></stop><stop offset="1" stop-color="#052d45"></stop></radialGradient><clipPath id="clip-path"><rect id="Rectangle_39" data-name="Rectangle 39" width="880" height="495" transform="translate(828 137)" fill="url(#radial-gradient)"></rect></clipPath><clipPath id="clip-path-2"><path id="Path_4293" data-name="Path 4293" d="M475.021,899.343H232.646c-4.832,0-8.749-3.651-8.749-8.155V668.564c0-4.5,3.917-8.155,8.749-8.155H516.273c4.832,0,8.749,3.652,8.749,8.155V852.736C525.022,878.477,502.636,899.343,475.021,899.343Z" transform="translate(909.779 -339.666)" fill="#0033c5"></path></clipPath></defs><g id="Mask_Group_4" data-name="Mask Group 4" transform="translate(-828 -137)" clip-path="url(#clip-path)"><rect id="Rectangle_9" data-name="Rectangle 9" width="880" height="495" transform="translate(828 137)" fill="url(#radial-gradient)"></rect><g id="Group_2675" data-name="Group 2675"><circle id="Ellipse_22" data-name="Ellipse 22" cx="56.612" cy="56.612" r="56.612" transform="translate(1179.886 279.739) rotate(-45)" fill="#1534b3"></circle><path id="Path_212" data-name="Path 212" d="M363.627,409.814a61.711,61.711,0,1,0,80.223,34.363A61.711,61.711,0,0,0,363.627,409.814Zm42.009,104.963a51.346,51.346,0,1,1,28.591-66.748A51.346,51.346,0,0,1,405.636,514.777Z" transform="translate(873.391 -187.369)" fill="#3736f9" opacity="0.1"></path><path id="Path_213" data-name="Path 213" d="M352.84,395.5a68.042,68.042,0,1,0,88.452,37.888A68.041,68.041,0,0,0,352.84,395.5Zm46.318,115.73a56.613,56.613,0,1,1,31.524-73.595A56.613,56.613,0,0,1,399.158,511.232Z" transform="translate(881.826 -178.934)" fill="#1953f8" stroke="#fff" stroke-width="1"></path><path id="Path_214" data-name="Path 214" d="M447.689,500.44a16,16,0,0,0-9.008-1.976,12.477,12.477,0,0,0,2.744-6.065,12.908,12.908,0,0,0-.937-6.69q-2.772-6.928-9.129-8.608t-15.711,2.063l-2.25.9-2.512-6.277c-.77-1.924-4.25-.53-3.481,1.393l2.512,6.277-2.262.906-2.512-6.277c-.77-1.924-4.251-.53-3.48,1.393l2.512,6.277-9.136,3.657a3.294,3.294,0,0,0-1.968,1.735,3.5,3.5,0,0,0,.151,2.679,3.068,3.068,0,0,0,1.969,2.1q1.245.3,4.642-1.065l1.457-.583L417.2,532.046l-1.456.583q-3.664,1.466-4.379,2.494a2.882,2.882,0,0,0-.007,2.794,3.549,3.549,0,0,0,1.725,2.074,3.331,3.331,0,0,0,2.635-.132l9.4-3.763,2.512,6.277c.77,1.924,4.25.53,3.48-1.393L428.6,534.7l2.262-.906,2.512,6.277c.77,1.923,4.251.53,3.48-1.393l-2.512-6.277,1.146-.459,3.8-1.519a41.958,41.958,0,0,0,7.281-3.554,17.586,17.586,0,0,0,4.095-3.712,16.712,16.712,0,0,0,3.432-7.671,15.036,15.036,0,0,0-.945-8.121A13.713,13.713,0,0,0,447.689,500.44Zm-28.527-15.31q5.119-2.049,8.694-1.047A7.685,7.685,0,0,1,433,489.012a7.35,7.35,0,0,1-.568,7.344q-2.229,3.2-8.495,5.7l-1.5.6-6.5-16.24Zm-6.7,2.682,6.5,16.24-2.262.905-6.5-16.24Zm13.651,40.668-7.241-18.093,2.262-.906,7.241,18.093Zm18.671-9.905q-2.559,3.458-10.855,6.777l-2.073.83-7.241-18.093,2.514-1.006q8.164-3.267,12.238-2.492t6.034,5.674Q447.345,515.12,444.784,518.575Z" transform="translate(834.526 -225.918)" fill="#fff"></path></g><path id="Path_221" data-name="Path 221" d="M491.631,897.457H252.47c-5.719,0-10.355-4.322-10.355-9.653V668.176c0-5.331,4.636-9.653,10.355-9.653H532.883c5.72,0,10.356,4.322,10.356,9.653V849.351C543.239,875.919,520.133,897.457,491.631,897.457Z" transform="translate(902.761 -338.94)" fill="#fff"></path><g id="Group_2655" data-name="Group 2655" transform="translate(83.163 140.408)"><circle id="Ellipse_26" data-name="Ellipse 26" cx="46.487" cy="46.487" r="46.487" transform="translate(1380.258 242.71) rotate(-45)" fill="#1534b3"></circle><path id="Path_229" data-name="Path 229" d="M356.688,409.021a50.674,50.674,0,1,0,65.875,28.217A50.674,50.674,0,0,0,356.688,409.021Zm34.5,86.19A42.162,42.162,0,1,1,414.66,440.4,42.162,42.162,0,0,1,391.183,495.211Z" transform="translate(1070.483 -213.358)" fill="#3736f9" opacity="0.1"></path><path id="Path_228" data-name="Path 228" d="M345.189,394.628a55.872,55.872,0,1,0,72.632,31.112A55.872,55.872,0,0,0,345.189,394.628Zm38.033,95.031a46.487,46.487,0,1,1,25.886-60.432A46.487,46.487,0,0,1,383.223,489.659Z" transform="translate(1080.051 -203.79)" fill="#1953f8" stroke="#fff" stroke-width="1"></path><g id="Group_2651" data-name="Group 2651" transform="translate(182.916 -48.023)"><path id="Path_1306" data-name="Path 1306" d="M130.352,187.249,113.62,155.62V197Z" transform="translate(1149.462 104.37)" fill="#fff"></path><path id="Path_1307" data-name="Path 1307" d="M76.06,187.249,92.787,155.62V197Z" transform="translate(1170.294 104.37)" fill="#fff"></path><path id="Path_1308" data-name="Path 1308" d="M130.352,233.68,113.62,259.372V243.429Z" transform="translate(1149.462 61.074)" fill="#fff"></path><path id="Path_1309" data-name="Path 1309" d="M76.06,233.68l16.727,25.692V243.429Z" transform="translate(1170.294 61.074)" fill="#fff"></path></g></g><g id="Group_2674" data-name="Group 2674"><circle id="Ellipse_65" data-name="Ellipse 65" cx="46.487" cy="46.487" r="46.487" transform="translate(1024.258 255) rotate(-45)" fill="#1534b3"></circle><path id="Path_4215" data-name="Path 4215" d="M356.688,409.021a50.674,50.674,0,1,0,65.875,28.217A50.674,50.674,0,0,0,356.688,409.021Zm34.5,86.19A42.162,42.162,0,1,1,414.66,440.4,42.162,42.162,0,0,1,391.183,495.211Z" transform="translate(714.483 -201.067)" fill="#3736f9" opacity="0.1"></path><path id="Path_4216" data-name="Path 4216" d="M345.189,394.628a55.872,55.872,0,1,0,72.632,31.112A55.872,55.872,0,0,0,345.189,394.628Zm38.033,95.031a46.487,46.487,0,1,1,25.886-60.432A46.487,46.487,0,0,1,383.223,489.659Z" transform="translate(724.051 -191.5)" fill="#1953f8" stroke="#fff" stroke-width="1"></path><path id="Path_4214" data-name="Path 4214" d="M212.6,63.543l2.862-9.9,4.7-1.422,1.959-6.762-4.709,1.422,4.747-16.419-12.635-.351-5.558,20.83-4.664,1.408-1.8,6.716,4.668-1.41-3.794,14.22h29.744l2.457-8.335Z" transform="translate(875.953 203.49)" fill="#fff"></path></g><g id="Mask_Group_3" data-name="Mask Group 3" clip-path="url(#clip-path-2)"><path id="Path_222" data-name="Path 222" d="M475.021,899.343H232.646c-4.832,0-8.749-3.651-8.749-8.155V668.564c0-4.5,3.917-8.155,8.749-8.155H516.273c4.832,0,8.749,3.652,8.749,8.155V852.736C525.022,878.477,502.636,899.343,475.021,899.343Z" transform="translate(909.779 -339.666)" fill="#3f70fa"></path><g id="Group_2659" data-name="Group 2659" transform="translate(1131.573 396.594)"><g id="Group_2657" data-name="Group 2657" transform="translate(0 4.846)"><path id="Path_4283" data-name="Path 4283" d="M264.768,34.373H246.608a16.519,16.519,0,0,0-13.787,7.379L196.572,96.126l2.117,1.411,36.249-54.374a14.016,14.016,0,0,1,11.67-6.246h18.159Z" transform="translate(-196.572 -34.373)" fill="#0033c5"></path></g><g id="Group_2658" data-name="Group 2658" transform="translate(67.375)"><path id="Path_4284" data-name="Path 4284" d="M214.657,40.073a6.13,6.13,0,1,1-6.13-6.119A6.141,6.141,0,0,1,214.657,40.073Zm-2.556,0a3.574,3.574,0,1,0-3.574,3.574A3.584,3.584,0,0,0,212.1,40.073Z" transform="translate(-202.397 -33.954)" fill="#0033c5"></path></g></g><g id="Group_2662" data-name="Group 2662" transform="translate(1131.573 359.801)"><g id="Group_2660" data-name="Group 2660" transform="translate(0 4.846)"><path id="Path_4285" data-name="Path 4285" d="M265.76,31.192H247.6a16.534,16.534,0,0,0-13.787,7.379L197.564,92.945l2.128,1.411,36.249-54.374A13.981,13.981,0,0,1,247.6,33.737H265.76Z" transform="translate(-197.564 -31.192)" fill="#0033c5"></path></g><g id="Group_2661" data-name="Group 2661" transform="translate(67.386)"><path id="Path_4286" data-name="Path 4286" d="M215.639,36.892a6.125,6.125,0,1,1-6.13-6.119A6.141,6.141,0,0,1,215.639,36.892Zm-2.545,0a3.58,3.58,0,1,0-3.586,3.574A3.586,3.586,0,0,0,213.094,36.892Z" transform="translate(-203.39 -30.773)" fill="#0033c5"></path></g></g><g id="Group_2665" data-name="Group 2665" transform="translate(1131.573 431.316)"><g id="Group_2663" data-name="Group 2663"><path id="Path_4287" data-name="Path 4287" d="M199.095,36.956l-2.117,1.423,36.249,54.374a16.547,16.547,0,0,0,13.787,7.379h35.151V97.576H247.015a13.973,13.973,0,0,1-11.67-6.246Z" transform="translate(-196.978 -36.956)" fill="#0033c5"></path></g><g id="Group_2664" data-name="Group 2664" transform="translate(84.377 55.773)"><path id="Path_4288" data-name="Path 4288" d="M216.522,47.908a6.125,6.125,0,1,1-6.119-6.13A6.121,6.121,0,0,1,216.522,47.908Zm-2.545,0a3.58,3.58,0,1,0-3.574,3.574A3.586,3.586,0,0,0,213.978,47.908Z" transform="translate(-204.273 -41.778)" fill="#0033c5"></path></g></g><g id="Group_2668" data-name="Group 2668" transform="translate(1131.573 461.481)"><g id="Group_2666" data-name="Group 2666"><path id="Path_4289" data-name="Path 4289" d="M197.754,39.564l-2.128,1.411,36.249,54.374a16.534,16.534,0,0,0,13.787,7.379h19.86v-2.545h-19.86A13.981,13.981,0,0,1,234,93.938Z" transform="translate(-195.626 -39.564)" fill="#0033c5"></path></g><g id="Group_2667" data-name="Group 2667" transform="translate(69.086 55.762)"><path id="Path_4290" data-name="Path 4290" d="M213.848,50.515a6.125,6.125,0,1,1-6.13-6.13A6.133,6.133,0,0,1,213.848,50.515Zm-2.545,0a3.58,3.58,0,1,0-3.585,3.574A3.586,3.586,0,0,0,211.3,50.515Z" transform="translate(-201.599 -44.385)" fill="#0033c5"></path></g></g><g id="Group_2671" data-name="Group 2671" transform="translate(1131.573 386.97)"><g id="Group_2669" data-name="Group 2669"><path id="Path_4291" data-name="Path 4291" d="M198.275,33.122,234.524,87.5a13.953,13.953,0,0,0,11.659,6.246h35.162V96.3H246.184A16.562,16.562,0,0,1,232.4,88.919l-36.25-54.374Z" transform="translate(-196.147 -33.122)" fill="#0535be"></path></g><g id="Group_2670" data-name="Group 2670" transform="translate(84.377 55.773)"><path id="Path_4292" data-name="Path 4292" d="M209.572,37.944a6.124,6.124,0,1,1-6.13,6.13A6.131,6.131,0,0,1,209.572,37.944Zm0,9.7A3.58,3.58,0,1,0,206,44.074,3.584,3.584,0,0,0,209.572,47.648Z" transform="translate(-203.442 -37.944)" fill="#0535be"></path></g></g></g><g id="Group_2673" data-name="Group 2673" transform="translate(258.294 8.789)"><circle id="Ellipse_66" data-name="Ellipse 66" cx="46.487" cy="46.487" r="46.487" transform="translate(975.945 525) rotate(-45)" fill="#1534b3"></circle><g id="Group_2672" data-name="Group 2672" transform="translate(-99)"><path id="Path_4281" data-name="Path 4281" d="M356.688,409.021a50.674,50.674,0,1,0,65.875,28.217A50.674,50.674,0,0,0,356.688,409.021Zm34.5,86.19A42.162,42.162,0,1,1,414.66,440.4,42.162,42.162,0,0,1,391.183,495.211Z" transform="translate(765.171 68.933)" fill="#3736f9" opacity="0.1"></path><path id="Path_4282" data-name="Path 4282" d="M345.189,394.628a55.872,55.872,0,1,0,72.632,31.112A55.872,55.872,0,0,0,345.189,394.628Zm38.033,95.031a46.487,46.487,0,1,1,25.886-60.432A46.487,46.487,0,0,1,383.223,489.659Z" transform="translate(774.738 78.5)" fill="#1953f8" stroke="#fff" stroke-width="1"></path><path id="Path_4280" data-name="Path 4280" d="M258.312,80.639l-5-29.863a1.256,1.256,0,0,0-.241-.561L238.088,30.8l-.145-.137-.075-.062-.445-.2-.116.432.037-.453-.087-.008-.112,0-.1,0a.887.887,0,0,0-.174.025l-.129.033-.469.287-.071.075L221.221,50.215a1.26,1.26,0,0,0-.241.557l-5,29.867a1.239,1.239,0,0,0,.577,1.271l19.95,12.247.071.037a1.616,1.616,0,0,0,.183.079c.046.012.1.025.2.046a1.411,1.411,0,0,0,.187.012,1.326,1.326,0,0,0,.245-.025,1.353,1.353,0,0,0,.2-.054c.046-.017.087-.037.141-.062L257.735,81.91A1.239,1.239,0,0,0,258.312,80.639Zm-3.56-6.128L248.72,64.07l2.9-8.226Zm-2,7.524L239.5,90.173l2.871-8.139Zm-20.831,0,2.871,8.139-13.249-8.139Zm-3.61-17.711,8.837-15.289,8.837,15.289-5.376,15.214h-6.921Zm26.464,15.214H243.256l4.366-12.368ZM238.4,46.206V35.284L250.635,51.15l-3.56,10.075ZM226.667,67.17l4.366,12.368H219.518Zm9.227-20.964-8.679,15.019-3.56-10.075,12.239-15.866ZM225.571,64.07l-6.032,10.44,3.128-18.666Zm14.15,17.964-2.576,7.3-2.576-7.3Zm-2.3-51.171Zm-.349-.046Zm-.278.079Zm.71,62.9Z" transform="translate(903.542 466.18)" fill="#fff"></path></g></g><path id="Path_223" data-name="Path 223" d="M686.995,861.9H602.358c-17.844,0-32.31-13.484-32.31-30.117v-.608c0-16.633,14.466-30.117,32.31-30.117h84.637Z" transform="translate(776.426 -393.849)" fill="#fff"></path><path id="Path_224" data-name="Path 224" d="M686.995,850.842v30.422H602.358c-17.844,0-32.31-13.484-32.31-30.117v-.609Z" transform="translate(776.426 -412.913)" fill="#272525" opacity="0.25"></path><g id="Group_2691" data-name="Group 2691"><g id="Group_2678" data-name="Group 2678" transform="translate(1633.761 126.687) rotate(90)" opacity="0.065"><g id="Group_2676" data-name="Group 2676" transform="translate(0 6.846)"><path id="Path_4295" data-name="Path 4295" d="M96.339,0H70.686A23.336,23.336,0,0,0,51.209,10.425L0,87.238l2.99,1.993L54.2,12.418A19.8,19.8,0,0,1,70.686,3.595H96.339Z" fill="#fff"></path></g><g id="Group_2677" data-name="Group 2677" transform="translate(95.179)"><path id="Path_4296" data-name="Path 4296" d="M17.32,8.644A8.66,8.66,0,1,1,8.66,0,8.675,8.675,0,0,1,17.32,8.644Zm-3.611,0A5.049,5.049,0,1,0,8.66,13.693,5.063,5.063,0,0,0,13.709,8.644Z" fill="#fff"></path></g></g><g id="Group_2681" data-name="Group 2681" transform="translate(1685.738 126.687) rotate(90)" opacity="0.065"><g id="Group_2679" data-name="Group 2679" transform="translate(0 6.846)"><path id="Path_4297" data-name="Path 4297" d="M96.34,0H70.686A23.358,23.358,0,0,0,51.209,10.425L0,87.238l3.007,1.993L54.216,12.418a19.75,19.75,0,0,1,16.47-8.823H96.34Z" fill="#fff"></path></g><g id="Group_2680" data-name="Group 2680" transform="translate(95.196)"><path id="Path_4298" data-name="Path 4298" d="M17.3,8.644A8.652,8.652,0,1,1,8.644,0,8.675,8.675,0,0,1,17.3,8.644Zm-3.595,0a5.057,5.057,0,1,0-5.065,5.049A5.066,5.066,0,0,0,13.709,8.644Z" fill="#fff"></path></g></g><g id="Group_2684" data-name="Group 2684" transform="translate(1584.709 126.687) rotate(90)" opacity="0.065"><g id="Group_2682" data-name="Group 2682"><path id="Path_4299" data-name="Path 4299" d="M2.99,0,0,2.01,51.209,78.823A23.376,23.376,0,0,0,70.686,89.248h49.657V85.637H70.686A19.739,19.739,0,0,1,54.2,76.813Z" fill="#fff"></path></g><g id="Group_2683" data-name="Group 2683" transform="translate(119.199 78.79)"><path id="Path_4300" data-name="Path 4300" d="M17.3,8.66A8.652,8.652,0,1,1,8.66,0,8.647,8.647,0,0,1,17.3,8.66Zm-3.595,0A5.057,5.057,0,1,0,8.66,13.709,5.066,5.066,0,0,0,13.709,8.66Z" fill="#fff"></path></g></g><g id="Group_2687" data-name="Group 2687" transform="translate(1542.095 126.687) rotate(90)" opacity="0.065"><g id="Group_2685" data-name="Group 2685"><path id="Path_4301" data-name="Path 4301" d="M3.006,0,0,1.993,51.209,78.807A23.358,23.358,0,0,0,70.685,89.232H98.741V85.637H70.685a19.751,19.751,0,0,1-16.47-8.824Z" fill="#fff"></path></g><g id="Group_2686" data-name="Group 2686" transform="translate(97.597 78.774)"><path id="Path_4302" data-name="Path 4302" d="M17.3,8.66A8.652,8.652,0,1,1,8.644,0,8.664,8.664,0,0,1,17.3,8.66Zm-3.595,0a5.057,5.057,0,1,0-5.065,5.049A5.066,5.066,0,0,0,13.709,8.66Z" fill="#fff"></path></g></g><g id="Group_2690" data-name="Group 2690" transform="translate(1647.356 126.687) rotate(90)" opacity="0.065"><g id="Group_2688" data-name="Group 2688"><path id="Path_4303" data-name="Path 4303" d="M3.006,0,54.215,76.813a19.711,19.711,0,0,0,16.471,8.823h49.673v3.611H70.686A23.4,23.4,0,0,1,51.209,78.823L0,2.01Z" fill="#fff"></path></g><g id="Group_2689" data-name="Group 2689" transform="translate(119.199 78.79)"><path id="Path_4304" data-name="Path 4304" d="M8.66,0A8.652,8.652,0,1,1,0,8.66,8.661,8.661,0,0,1,8.66,0Zm0,13.709A5.057,5.057,0,1,0,3.611,8.66,5.063,5.063,0,0,0,8.66,13.709Z" fill="#fff"></path></g></g></g><g id="Group_2692" data-name="Group 2692" transform="translate(860 541.96)"><g id="Group_2678-2" data-name="Group 2678" transform="translate(67.555 100.58) rotate(-90)" opacity="0.073"><g id="Group_2676-2" data-name="Group 2676" transform="translate(0 0)"><path id="Path_4295-2" data-name="Path 4295" d="M70.986,65.749h-18.9a17.2,17.2,0,0,1-14.351-7.681L0,1.469,2.2,0,39.936,56.6a14.59,14.59,0,0,0,12.148,6.5h18.9Z" fill="#fff"></path></g><g id="Group_2677-2" data-name="Group 2677" transform="translate(70.131 58.044)"><path id="Path_4296-2" data-name="Path 4296" d="M12.762,6.381A6.381,6.381,0,1,0,6.381,12.75,6.392,6.392,0,0,0,12.762,6.381Zm-2.661,0a3.72,3.72,0,1,1-3.72-3.72A3.73,3.73,0,0,1,10.1,6.381Z" transform="translate(0 0)" fill="#fff"></path></g></g><g id="Group_2681-2" data-name="Group 2681" transform="translate(105.853 100.58) rotate(-90)" opacity="0.073"><g id="Group_2679-2" data-name="Group 2679" transform="translate(0 0)"><path id="Path_4297-2" data-name="Path 4297" d="M70.986,65.749h-18.9a17.211,17.211,0,0,1-14.352-7.681L0,1.469,2.216,0,39.948,56.6a14.553,14.553,0,0,0,12.136,6.5h18.9Z" fill="#fff"></path></g><g id="Group_2680-2" data-name="Group 2680" transform="translate(70.143 58.044)"><path id="Path_4298-2" data-name="Path 4298" d="M12.75,6.381A6.375,6.375,0,1,0,6.369,12.75,6.392,6.392,0,0,0,12.75,6.381Zm-2.649,0a3.726,3.726,0,1,1-3.732-3.72A3.733,3.733,0,0,1,10.1,6.381Z" transform="translate(0 0)" fill="#fff"></path></g></g><g id="Group_2684-2" data-name="Group 2684" transform="translate(31.4 100.58) rotate(-90)" opacity="0.073"><g id="Group_2682-2" data-name="Group 2682" transform="translate(0 5.045)"><path id="Path_4299-2" data-name="Path 4299" d="M2.2,65.761,0,64.28l37.732-56.6A17.224,17.224,0,0,1,52.084,0H88.673V2.661H52.084a14.545,14.545,0,0,0-12.148,6.5Z" fill="#fff"></path></g><g id="Group_2683-2" data-name="Group 2683" transform="translate(87.83 0)"><path id="Path_4300-2" data-name="Path 4300" d="M12.75,6.369A6.375,6.375,0,1,0,6.381,12.75,6.372,6.372,0,0,0,12.75,6.369Zm-2.649,0a3.726,3.726,0,1,1-3.72-3.72A3.733,3.733,0,0,1,10.1,6.369Z" fill="#fff"></path></g></g><g id="Group_2687-2" data-name="Group 2687" transform="translate(0 100.58) rotate(-90)" opacity="0.073"><g id="Group_2685-2" data-name="Group 2685" transform="translate(0 5.057)"><path id="Path_4301-2" data-name="Path 4301" d="M2.215,65.749,0,64.28l37.732-56.6A17.211,17.211,0,0,1,52.083,0H72.756V2.649H52.083a14.553,14.553,0,0,0-12.136,6.5Z" fill="#fff"></path></g><g id="Group_2686-2" data-name="Group 2686" transform="translate(71.913 0)"><path id="Path_4302-2" data-name="Path 4302" d="M12.75,6.381a6.375,6.375,0,1,0-6.381,6.381A6.384,6.384,0,0,0,12.75,6.381Zm-2.649,0a3.726,3.726,0,1,1-3.732-3.72A3.733,3.733,0,0,1,10.1,6.381Z" fill="#fff"></path></g></g><g id="Group_2690-2" data-name="Group 2690" transform="translate(77.56 100.58) rotate(-90)" opacity="0.073"><g id="Group_2688-2" data-name="Group 2688" transform="translate(0 5.045)"><path id="Path_4303-2" data-name="Path 4303" d="M2.215,65.761l37.732-56.6a14.524,14.524,0,0,1,12.136-6.5h36.6V0h-36.6A17.24,17.24,0,0,0,37.733,7.681L0,64.28Z" fill="#fff"></path></g><g id="Group_2689-2" data-name="Group 2689" transform="translate(87.83 0)"><path id="Path_4304-2" data-name="Path 4304" d="M6.381,12.75A6.375,6.375,0,1,0,0,6.369,6.382,6.382,0,0,0,6.381,12.75Zm0-10.1a3.726,3.726,0,1,1-3.72,3.72A3.73,3.73,0,0,1,6.381,2.649Z" fill="#fff"></path></g></g></g></g></svg> 