<svg width="432" height="395" viewBox="0 0 432 395" fill="none" xmlns="http://www.w3.org/2000/svg">
<path d="M343.916 328.83H243.001C241.595 328.843 240.201 328.589 238.909 328.084C237.616 327.578 236.453 326.832 235.493 325.892C234.533 324.953 233.797 323.841 233.333 322.628C232.869 321.414 232.686 320.126 232.797 318.844L246.88 123.659C247.116 120.969 248.439 118.457 250.59 116.611C252.742 114.765 255.568 113.717 258.518 113.673H359.425C360.83 113.66 362.223 113.915 363.514 114.421C364.806 114.928 365.968 115.674 366.927 116.613C367.886 117.552 368.621 118.664 369.084 119.877C369.548 121.09 369.73 122.378 369.62 123.659L355.554 318.844C355.318 321.533 353.996 324.046 351.844 325.892C349.692 327.738 346.866 328.785 343.916 328.83Z" fill="#263238"/>
<path d="M365.159 166.161H352.942C352.603 166.164 352.267 166.102 351.955 165.98C351.643 165.858 351.363 165.678 351.131 165.452C350.9 165.225 350.722 164.957 350.61 164.664C350.498 164.371 350.454 164.06 350.48 163.751L351.698 146.845C351.766 146.202 352.091 145.605 352.611 145.168C353.131 144.73 353.809 144.484 354.515 144.475H366.723C367.059 144.472 367.391 144.533 367.7 144.653C368.008 144.772 368.287 144.949 368.518 145.171C368.749 145.393 368.927 145.657 369.042 145.945C369.157 146.233 369.206 146.539 369.186 146.845L367.967 163.751C367.912 164.4 367.593 165.007 367.073 165.453C366.554 165.898 365.872 166.151 365.159 166.161Z" fill="#263238"/>
<path d="M284.928 110.908H280.461V111.698H284.928V110.908Z" fill="#407BFF"/>
<path d="M274.958 110.908H258.715V111.698H274.958V110.908Z" fill="#407BFF"/>
<path d="M342.376 328.83H241.461C240.055 328.842 238.662 328.587 237.37 328.081C236.078 327.575 234.916 326.829 233.956 325.89C232.996 324.951 232.261 323.839 231.796 322.626C231.332 321.413 231.148 320.125 231.257 318.844L245.375 123.659C245.611 120.97 246.933 118.457 249.085 116.611C251.237 114.765 254.063 113.717 257.013 113.673H357.928C359.328 113.668 360.714 113.929 361.999 114.438C363.283 114.948 364.438 115.695 365.39 116.634C366.343 117.572 367.072 118.681 367.532 119.89C367.992 121.099 368.173 122.382 368.063 123.659L354.014 318.844C353.778 321.533 352.456 324.046 350.304 325.892C348.153 327.738 345.326 328.785 342.376 328.83Z" fill="#407BFF"/>
<path d="M346.954 306.093H240.19C239.391 306.101 238.6 305.957 237.865 305.669C237.131 305.382 236.47 304.958 235.925 304.425C235.38 303.891 234.962 303.26 234.698 302.57C234.434 301.881 234.33 301.149 234.393 300.421L246.653 130.492C246.785 128.969 247.532 127.544 248.749 126.496C249.966 125.448 251.565 124.85 253.236 124.82H360.027C360.825 124.812 361.617 124.957 362.351 125.244C363.086 125.531 363.746 125.955 364.292 126.489C364.837 127.022 365.255 127.654 365.519 128.343C365.783 129.032 365.887 129.764 365.824 130.492L353.564 300.421C353.431 301.949 352.68 303.376 351.458 304.425C350.236 305.474 348.63 306.069 346.954 306.093Z" fill="white"/>
<path d="M327.04 124.82H305.837L254.473 306.093H275.675L327.04 124.82Z" fill="#FAFAFA"/>
<path d="M345.72 124.82H335.119L283.754 306.093H294.355L345.72 124.82Z" fill="#FAFAFA"/>
<path d="M331.636 249.924L308.585 170.205C307.968 168.086 306.458 166.277 304.385 165.173C302.312 164.07 299.845 163.763 297.525 164.32L242.99 177.497L235.715 281.667L325.199 260.044C327.517 259.477 329.494 258.094 330.7 256.198C331.906 254.302 332.243 252.047 331.636 249.924Z" fill="#F0F0F0"/>
<path opacity="0.2" d="M297.433 319.59C300.204 317.139 300.417 313.23 297.909 310.859C295.4 308.488 291.121 308.553 288.35 311.004C285.578 313.456 285.365 317.364 287.874 319.735C290.382 322.106 294.661 322.041 297.433 319.59Z" fill="white"/>
<path opacity="0.2" d="M309.854 118.927C309.794 119.615 309.455 120.258 308.904 120.73C308.352 121.202 307.628 121.469 306.873 121.478C306.515 121.479 306.161 121.412 305.833 121.282C305.505 121.152 305.21 120.961 304.966 120.721C304.723 120.481 304.536 120.198 304.418 119.889C304.3 119.581 304.254 119.253 304.281 118.927C304.339 118.238 304.678 117.594 305.229 117.121C305.781 116.649 306.506 116.383 307.262 116.375C307.62 116.374 307.974 116.441 308.302 116.571C308.63 116.701 308.925 116.892 309.169 117.132C309.412 117.372 309.599 117.655 309.717 117.964C309.835 118.273 309.881 118.6 309.854 118.927Z" fill="white"/>
<path opacity="0.2" d="M308.592 118.927C308.562 119.305 308.377 119.66 308.075 119.92C307.772 120.181 307.374 120.328 306.959 120.333C306.761 120.336 306.564 120.3 306.382 120.23C306.199 120.159 306.035 120.053 305.9 119.921C305.765 119.788 305.662 119.631 305.597 119.46C305.532 119.289 305.508 119.107 305.525 118.927C305.555 118.548 305.74 118.193 306.042 117.933C306.344 117.672 306.742 117.525 307.158 117.52C307.356 117.517 307.552 117.553 307.735 117.624C307.917 117.695 308.081 117.8 308.216 117.932C308.352 118.065 308.455 118.222 308.52 118.393C308.584 118.564 308.609 118.746 308.592 118.927Z" fill="white"/>
<path d="M146.293 109.067C149.516 101.823 148.358 92.9988 139.217 91.0238C137.203 90.5493 135.095 90.5129 133.062 90.9176C131.03 91.3223 129.129 92.1568 127.513 93.3542C125.897 94.5516 124.61 96.0785 123.756 97.8126C122.901 99.5467 122.503 101.44 122.593 103.34C122.956 111.24 128.641 117.821 118.68 123.548C108.718 129.276 109.78 146.537 129.048 143.203C148.315 139.869 137.904 130.808 137.904 130.808C137.904 130.808 133.177 134.332 131.657 130.745C129.73 126.1 142.56 117.544 146.293 109.067Z" fill="#263238"/>
<path d="M112.388 132.831L111.965 132.744C113.252 127.474 115.274 126.116 117.408 124.678C119.542 123.24 121.564 121.873 123.197 116.691C123.966 114.25 123.482 111.548 123.007 108.941C122.402 105.615 121.78 102.171 123.655 99.0897L124.026 99.2872C122.229 102.242 122.843 105.607 123.43 108.878C123.914 111.532 124.415 114.273 123.612 116.778C121.944 122.087 119.767 123.548 117.667 124.97C115.568 126.392 113.641 127.711 112.388 132.831Z" fill="#263238"/>
<path d="M170.829 148.86C170.89 149.128 170.993 149.531 171.088 149.895L171.391 151.008C171.598 151.759 171.831 152.509 172.073 153.26C172.566 154.753 173.093 156.262 173.663 157.747C174.803 160.736 176.107 163.67 177.568 166.54L178.657 168.618C178.841 168.989 179.102 169.324 179.426 169.605C180.397 170.319 181.556 170.788 182.787 170.964C186.017 171.441 189.311 171.441 192.541 170.964L193.708 174.321C192.814 174.682 191.9 174.998 190.969 175.269C190.044 175.551 189.104 175.788 188.152 175.98C186.17 176.398 184.136 176.57 182.104 176.494C179.713 176.432 177.388 175.762 175.391 174.558C174.267 173.846 173.32 172.925 172.609 171.857L172.471 171.659L172.384 171.525L172.212 171.24L171.857 170.687L171.157 169.566C169.349 166.552 167.762 163.433 166.405 160.228C165.749 158.648 165.101 156.997 164.574 155.33C164.315 154.54 164.055 153.663 163.822 152.81C163.589 151.956 163.381 151.151 163.191 150.139L170.829 148.86Z" fill="#FFC3BD"/>
<path d="M164.157 137.815C172.875 141.37 172.797 153.315 172.797 153.315L163.613 158.363C163.613 158.363 156.701 149.01 157.219 144.76C157.729 140.328 159.215 135.817 164.157 137.815Z" fill="#407BFF"/>
<path opacity="0.2" d="M165.531 148.006C163.147 145.802 161.047 148.346 159.129 151.166C160.444 153.66 161.942 156.07 163.613 158.379L167.38 156.309C168.123 153.679 167.907 150.218 165.531 148.006Z" fill="black"/>
<path d="M191.633 171.264L197.767 168.467L197.836 175.807C197.836 175.807 193.257 176.533 190.207 173.595L191.633 171.264Z" fill="#FFC3BD"/>
<path d="M204.362 169.771L203.308 175.222L197.839 175.807L197.77 168.467L204.362 169.771Z" fill="#FFC3BD"/>
<path d="M135.484 322.999L143.07 323.663L146.604 307.523L139.018 306.86L135.484 322.999Z" fill="#FFC3BD"/>
<path d="M85.7422 304.079L91.9111 308.187L102.201 294.836L96.0238 290.728L85.7422 304.079Z" fill="#FFC3BD"/>
<path d="M94.1748 305.619L89.0945 299.26C89.01 299.147 88.883 299.067 88.7378 299.035C88.5926 299.003 88.4396 299.021 88.3082 299.086L82.217 302.041C82.0665 302.121 81.9361 302.229 81.8344 302.358C81.7327 302.487 81.662 302.634 81.6269 302.79C81.5918 302.946 81.5932 303.107 81.6309 303.262C81.6685 303.418 81.7417 303.564 81.8455 303.692C83.6599 305.88 84.6535 306.852 86.8913 309.656C88.2737 311.379 91.0385 315.368 92.9393 317.746C94.8401 320.124 97.5098 318.536 96.9569 317.39C94.4513 312.248 94.3649 309.238 94.555 306.828C94.5912 306.397 94.4562 305.967 94.1748 305.619Z" fill="#263238"/>
<path d="M144.072 321.569H134.966C134.802 321.57 134.643 321.619 134.513 321.711C134.384 321.802 134.291 321.93 134.249 322.075L132.27 328.64C132.222 328.795 132.213 328.959 132.246 329.118C132.279 329.276 132.353 329.426 132.46 329.554C132.568 329.682 132.706 329.786 132.865 329.856C133.025 329.926 133.199 329.962 133.376 329.959C136.59 329.959 138.111 329.959 142.111 329.959H154.354C157.68 329.959 158.372 326.886 156.998 326.602C150.829 325.354 147.269 323.631 145.36 321.988C145.004 321.705 144.544 321.555 144.072 321.569Z" fill="#263238"/>
<path opacity="0.2" d="M146.603 307.531L144.78 315.85H137.047L139.017 306.868L146.603 307.531Z" fill="black"/>
<path opacity="0.2" d="M96.0237 290.728L102.201 294.844L96.8964 301.725L90.7188 297.609L96.0237 290.728Z" fill="black"/>
<path d="M167.754 144.112C167.218 149.444 165.283 159.912 159.624 180.365L128.571 177.908C130.066 167.251 130.766 160.346 127.846 140.17C127.751 139.503 127.807 138.825 128.01 138.179C128.214 137.533 128.561 136.931 129.029 136.413C129.497 135.894 130.077 135.469 130.733 135.164C131.388 134.859 132.105 134.681 132.84 134.64C135.077 134.529 137.738 134.458 140.408 134.553C145.131 134.617 149.843 134.99 154.509 135.667C157.248 136.117 160.168 136.765 162.544 137.334C164.149 137.718 165.552 138.61 166.506 139.851C167.46 141.091 167.902 142.601 167.754 144.112Z" fill="#407BFF"/>
<path opacity="0.2" d="M128.641 146.079C129.038 149.239 129.332 152.059 129.505 154.587C132.364 154.358 134.473 151.49 134.689 145.494C133.617 142.595 131.068 143.646 128.641 146.079Z" fill="black"/>
<path d="M159.622 180.365C159.622 180.365 170.128 222.867 163.078 252.832C158.386 272.898 147.94 313.433 147.94 313.433L134.695 313.124C134.695 313.124 141.02 270.583 143.672 253.874C148.208 225.261 136.847 178.595 136.847 178.595L159.622 180.365Z" fill="#263238"/>
<path opacity="0.2" d="M147.51 188.952L140.883 198.503C142.878 209.828 144.145 221.25 144.676 232.71C153.99 217.463 149.575 197.018 147.51 188.952Z" fill="black"/>
<path d="M149.841 314.065L133.477 313.685L134.427 309.088L151.119 309.806L149.841 314.065Z" fill="#407BFF"/>
<path d="M152.833 179.915C152.833 179.915 146.672 224.984 133.306 249.593C122.515 269.469 99.9387 301.061 99.9387 301.061L91.6875 295.018C91.6875 295.018 105.805 260.076 113.823 246.875C133.496 214.485 117.417 189.797 128.572 177.908L152.833 179.915Z" fill="#263238"/>
<path d="M282.047 139.806L135.188 196.225C130.577 197.996 128.41 202.85 130.347 207.065L165.277 283.08C167.214 287.296 172.522 289.277 177.132 287.506L323.992 231.087C328.602 229.316 330.77 224.463 328.832 220.247L293.902 144.232C291.965 140.017 286.658 138.035 282.047 139.806Z" fill="#407BFF"/>
<path opacity="0.1" d="M282.047 139.806L135.188 196.225C130.577 197.996 128.41 202.85 130.347 207.065L165.277 283.08C167.214 287.296 172.522 289.277 177.132 287.506L323.992 231.087C328.602 229.316 330.77 224.463 328.832 220.247L293.902 144.232C291.965 140.017 286.658 138.035 282.047 139.806Z" fill="black"/>
<path opacity="0.2" d="M175.7 192.841L146.944 203.888C144.727 204.74 143.685 207.074 144.616 209.101L150.677 222.291C151.609 224.319 154.162 225.272 156.379 224.42L185.134 213.373C187.351 212.521 188.394 210.187 187.462 208.16L181.401 194.97C180.469 192.943 177.917 191.99 175.7 192.841Z" fill="white"/>
<path opacity="0.4" d="M195.875 244.98L167.701 255.804C166.869 256.123 166.479 256.999 166.828 257.759L168.966 262.413C169.316 263.173 170.273 263.53 171.104 263.211L199.278 252.387C200.11 252.068 200.501 251.193 200.151 250.432L198.013 245.778C197.663 245.018 196.706 244.661 195.875 244.98Z" fill="white"/>
<path opacity="0.4" d="M232.531 230.902L204.357 241.726C203.526 242.045 203.135 242.92 203.484 243.681L205.623 248.335C205.972 249.095 206.929 249.452 207.761 249.133L235.935 238.309C236.766 237.99 237.157 237.115 236.808 236.354L234.669 231.7C234.32 230.94 233.362 230.583 232.531 230.902Z" fill="white"/>
<path opacity="0.4" d="M269.179 216.824L241.005 227.648C240.174 227.967 239.783 228.842 240.133 229.602L242.271 234.256C242.62 235.017 243.578 235.374 244.409 235.055L272.583 224.231C273.414 223.912 273.805 223.036 273.456 222.276L271.317 217.622C270.968 216.862 270.011 216.505 269.179 216.824Z" fill="white"/>
<path opacity="0.4" d="M305.836 202.746L277.662 213.569C276.83 213.889 276.439 214.764 276.789 215.524L278.927 220.178C279.277 220.939 280.234 221.296 281.065 220.977L309.239 210.153C310.071 209.834 310.462 208.958 310.112 208.198L307.974 203.544C307.624 202.784 306.667 202.426 305.836 202.746Z" fill="white"/>
<path d="M100.803 301.898L90.2188 294.575L92.8194 290.325L104.069 298.304L100.803 301.898Z" fill="#407BFF"/>
<path d="M128.259 176.21L126.617 178.643C126.488 178.824 126.73 179.054 127.084 179.077L159.657 181.653C159.933 181.653 160.175 181.566 160.21 181.408L160.728 178.888C160.771 178.714 160.538 178.548 160.236 178.524L128.786 176.036C128.689 176.022 128.59 176.03 128.498 176.06C128.406 176.091 128.324 176.142 128.259 176.21Z" fill="#407BFF"/>
<path opacity="0.5" d="M128.259 176.21L126.617 178.643C126.488 178.824 126.73 179.054 127.084 179.077L159.657 181.653C159.933 181.653 160.175 181.566 160.21 181.408L160.728 178.888C160.771 178.714 160.538 178.548 160.236 178.524L128.786 176.036C128.689 176.022 128.59 176.03 128.498 176.06C128.406 176.091 128.324 176.142 128.259 176.21Z" fill="black"/>
<path d="M132.192 179.757L131.328 179.693C131.164 179.693 131.043 179.591 131.06 179.496L131.769 176.225C131.769 176.123 131.942 176.059 132.114 176.075L132.978 176.138C133.151 176.138 133.272 176.241 133.246 176.336L132.538 179.606C132.503 179.701 132.348 179.772 132.192 179.757Z" fill="#407BFF"/>
<path d="M157.247 181.739L156.383 181.676C156.219 181.676 156.098 181.574 156.115 181.479L156.823 178.208C156.854 178.152 156.905 178.106 156.968 178.079C157.031 178.052 157.101 178.044 157.169 178.058L158.033 178.121C158.206 178.121 158.327 178.224 158.301 178.319L157.592 181.589C157.584 181.7 157.428 181.755 157.247 181.739Z" fill="#407BFF"/>
<path d="M144.717 180.752L143.853 180.681C143.681 180.681 143.56 180.578 143.586 180.483L144.294 177.213C144.294 177.118 144.467 177.047 144.631 177.063L145.495 177.134C145.659 177.134 145.78 177.237 145.763 177.331L145.054 180.602C145.037 180.697 144.89 180.76 144.717 180.752Z" fill="#407BFF"/>
<path d="M96.11 309.135C96.0128 309.15 95.9134 309.15 95.8162 309.135C94.8745 308.961 94.0882 307.5 93.6735 306.646C93.6572 306.624 93.6484 306.598 93.6484 306.571C93.6484 306.545 93.6572 306.519 93.6735 306.496C93.6959 306.481 93.7232 306.473 93.7513 306.473C93.7793 306.473 93.8066 306.481 93.829 306.496C94.1228 306.591 96.6975 307.5 96.8962 308.361C96.9201 308.454 96.9149 308.552 96.8813 308.642C96.8478 308.733 96.7871 308.813 96.7062 308.874C96.5428 309.017 96.334 309.108 96.11 309.135ZM94.0969 306.828C94.6844 308.005 95.341 308.756 95.8767 308.851C95.9977 308.867 96.1213 308.856 96.2361 308.817C96.3509 308.778 96.4532 308.714 96.5334 308.629C96.5766 308.6 96.6094 308.559 96.6278 308.513C96.6462 308.467 96.6494 308.417 96.637 308.369C96.5161 307.839 94.9868 307.16 94.0969 306.828Z" fill="#407BFF"/>
<path d="M96.1881 306.939C95.3668 307.032 94.5331 306.951 93.7516 306.702C93.7278 306.692 93.7072 306.677 93.692 306.657C93.6768 306.638 93.6676 306.615 93.6652 306.591C93.6619 306.567 93.6657 306.543 93.6764 306.52C93.687 306.498 93.7041 306.479 93.7257 306.465C93.8035 306.417 95.5833 305.232 96.6547 305.454C96.787 305.477 96.9122 305.526 97.0212 305.598C97.1302 305.671 97.2204 305.764 97.2854 305.872C97.3709 305.971 97.4174 306.094 97.4174 306.22C97.4174 306.346 97.3709 306.468 97.2854 306.567C96.978 306.804 96.59 306.935 96.1881 306.939ZM94.175 306.52C95.039 306.749 96.6547 306.765 97.0521 306.362C97.1212 306.299 97.1817 306.196 97.0521 305.991C97.0095 305.917 96.9493 305.854 96.876 305.804C96.8027 305.755 96.7182 305.722 96.6288 305.706C95.903 305.572 94.6588 306.228 94.175 306.52Z" fill="#407BFF"/>
<path d="M148.113 322.913C147.275 322.893 146.442 322.798 145.625 322.628C145.597 322.617 145.573 322.599 145.557 322.576C145.54 322.553 145.531 322.525 145.531 322.498C145.531 322.47 145.54 322.443 145.557 322.42C145.573 322.397 145.597 322.378 145.625 322.367C146.005 322.202 149.305 320.787 150.135 321.325C150.212 321.369 150.273 321.433 150.311 321.509C150.35 321.585 150.363 321.669 150.351 321.751C150.349 321.906 150.307 322.058 150.229 322.195C150.151 322.332 150.039 322.451 149.901 322.541C149.364 322.836 148.737 322.966 148.113 322.913ZM146.143 322.439C147.128 322.604 148.942 322.826 149.685 322.312C149.782 322.243 149.861 322.156 149.917 322.056C149.974 321.957 150.007 321.847 150.014 321.735C150.014 321.625 150.014 321.577 149.936 321.554C149.469 321.261 147.517 321.886 146.143 322.439Z" fill="#407BFF"/>
<path d="M145.659 322.628C145.629 322.639 145.595 322.639 145.564 322.628C145.542 322.613 145.525 322.592 145.516 322.568C145.506 322.544 145.505 322.518 145.512 322.494C145.512 322.359 146.29 319.381 148.104 319.571C148.554 319.626 148.675 319.823 148.701 319.989C148.813 320.779 146.731 322.28 145.728 322.652L145.659 322.628ZM147.923 319.808C146.774 319.808 146.109 321.546 145.884 322.241C146.964 321.719 148.476 320.479 148.381 319.997C148.381 319.958 148.381 319.847 148.044 319.816L147.923 319.808Z" fill="#407BFF"/>
<path d="M132.009 146.221L131.551 146.814L131.05 147.485C130.713 147.943 130.376 148.409 130.056 148.891C129.4 149.839 128.804 150.827 128.199 151.814C127.005 153.801 125.954 155.856 125.054 157.968C124.146 160.068 123.387 162.218 122.782 164.407L122.376 165.987C122.376 165.939 122.324 166.105 122.419 166.406C122.716 167.25 123.15 168.049 123.706 168.776C125.102 170.61 126.669 172.331 128.389 173.918C130.117 175.593 132.035 177.213 133.944 178.824C135.854 180.436 137.858 181.984 139.863 183.509C141.867 185.034 143.915 186.574 145.911 188.059L143.751 190.975C139.123 188.465 134.655 185.716 130.368 182.743C128.208 181.258 126.091 179.693 124.043 178.003C121.896 176.282 119.937 174.374 118.194 172.307C117.149 171.093 116.332 169.729 115.775 168.27C115.396 167.255 115.27 166.175 115.403 165.11V164.889V164.77L115.446 164.533L115.533 164.051L115.714 163.095C116.222 160.551 116.939 158.045 117.857 155.598C118.806 153.164 119.929 150.789 121.218 148.488C121.866 147.335 122.574 146.221 123.335 145.123C123.706 144.57 124.095 144.025 124.501 143.48L125.14 142.69C125.365 142.413 125.555 142.168 125.857 141.829L132.009 146.221Z" fill="#FFC3BD"/>
<path d="M131.24 135.09C125.313 136.512 119.594 149.65 119.594 149.65L127.266 156.065C127.266 156.065 139.319 146.016 138.913 141.481C138.576 137.626 136.001 133.937 131.24 135.09Z" fill="#407BFF"/>
<path opacity="0.2" d="M140.408 134.3C139.322 134.503 138.215 134.595 137.107 134.576C136.874 138.479 139.613 142.247 146.344 147.303C147.959 142.698 151.528 141.702 151.528 141.702L140.408 134.3Z" fill="black"/>
<path opacity="0.2" d="M154.507 135.54C154.507 135.54 155.293 135.643 157.168 136.038C158.421 137.8 160.045 143.227 156.356 147.098C154.921 142.358 151.5 141.758 151.5 141.758L154.507 135.54Z" fill="black"/>
<path d="M140.408 134.3C140.408 134.3 138.68 134.3 136.572 134.3C135.319 136.062 139.63 140.944 146.352 146C147.968 141.394 151.536 141.671 151.536 141.671L140.408 134.3Z" fill="white"/>
<path d="M154.507 135.54C154.507 135.54 155.293 135.643 157.168 136.038C158.421 137.8 161.125 142.571 157.436 146.411C156.001 141.671 151.5 141.734 151.5 141.734L154.507 135.54Z" fill="white"/>
<path d="M143.18 120.12C143.681 124.338 143.845 131.969 140.406 134.529C140.406 134.529 142.195 139.269 151.5 141.734C157.099 138.779 154.507 135.643 154.507 135.643C149.556 134.142 150.014 130.721 151.198 127.561L143.18 120.12Z" fill="#FFC3BD"/>
<path opacity="0.2" d="M146.449 123.161L151.201 127.561C150.909 128.293 150.69 129.046 150.544 129.813C148.634 129.41 145.87 127.593 145.844 125.729C145.879 124.847 146.084 123.978 146.449 123.161Z" fill="black"/>
<path d="M153.687 103.261C155.199 101.736 158.197 103.68 159.303 107.416C160.962 112.946 156.538 113.341 154.222 110.576C151.907 107.811 152.425 104.533 153.687 103.261Z" fill="#263238"/>
<path d="M158.371 112.97C159.888 113.45 161.323 114.126 162.631 114.977C161.879 113.302 161.205 112.283 158.371 112.97Z" fill="#263238"/>
<path d="M159.242 113.231C160.47 113.007 161.727 112.943 162.975 113.041C161.748 112.18 160.858 111.753 159.242 113.231Z" fill="#263238"/>
<path d="M139.104 113.531C141.031 120.27 141.696 123.161 146.206 125.981C153.006 130.231 161.637 126.597 161.957 119.464C162.242 113.049 159.045 103.111 151.157 101.705C149.419 101.382 147.619 101.472 145.93 101.967C144.241 102.463 142.719 103.346 141.509 104.532C140.3 105.719 139.444 107.169 139.023 108.745C138.602 110.32 138.63 111.968 139.104 113.531Z" fill="#FFC3BD"/>
<path d="M142.662 104.643L140.528 106.911C139.887 107.581 138.984 107.993 138.014 108.058C137.043 108.123 136.084 107.836 135.344 107.258C134.61 106.674 134.157 105.849 134.085 104.961C134.012 104.074 134.324 103.196 134.955 102.518L137.089 100.259C137.729 99.5897 138.632 99.1774 139.601 99.1109C140.571 99.0444 141.531 99.329 142.273 99.9034C143.005 100.489 143.456 101.314 143.528 102.201C143.601 103.087 143.29 103.965 142.662 104.643Z" fill="white"/>
<path d="M144.631 107.171L142.039 108.356C140.975 108.833 139.748 108.905 138.626 108.557C137.505 108.209 136.579 107.47 136.051 106.5C135.53 105.526 135.451 104.403 135.831 103.376C136.211 102.349 137.02 101.501 138.082 101.017L140.674 99.8323C141.74 99.3561 142.969 99.2848 144.092 99.6341C145.216 99.9834 146.142 100.725 146.67 101.697C147.19 102.67 147.268 103.793 146.886 104.819C146.504 105.845 145.693 106.69 144.631 107.171Z" fill="#407BFF"/>
<path d="M141.313 118.571C141.313 118.571 146.635 117.457 144.372 110.339C144.287 110.065 144.272 109.777 144.328 109.497C144.384 109.217 144.51 108.953 144.695 108.724C144.88 108.495 145.12 108.308 145.397 108.178C145.673 108.047 145.978 107.975 146.29 107.969C152.286 107.819 157.893 106.674 157.098 103.498C156.105 99.4847 141.166 96.3879 138.453 104.422C133.157 105.552 132.958 115.095 141.313 118.571Z" fill="#263238"/>
<path d="M141.34 117.165C142.857 117.645 144.291 118.321 145.599 119.171C144.848 117.512 144.174 116.493 141.34 117.165Z" fill="#263238"/>
<path d="M142.215 117.441C143.443 117.218 144.7 117.154 145.947 117.252C144.729 116.407 143.839 115.972 142.215 117.441Z" fill="#263238"/>
<path d="M137.892 118.824C138.582 120.014 139.76 120.906 141.167 121.304C143.042 121.818 144.01 120.301 143.526 118.666C143.085 117.196 141.582 115.166 139.69 115.364C139.278 115.416 138.887 115.561 138.552 115.785C138.217 116.01 137.948 116.307 137.77 116.65C137.591 116.993 137.509 117.372 137.531 117.751C137.552 118.131 137.676 118.499 137.892 118.824Z" fill="#FFC3BD"/>
<path d="M151.595 113.302C151.716 113.855 152.14 114.25 152.528 114.179C152.917 114.108 153.15 113.594 153.038 113.041C152.926 112.488 152.494 112.093 152.096 112.164C151.699 112.235 151.474 112.741 151.595 113.302Z" fill="#263238"/>
<path d="M158.466 112.062C158.587 112.622 159.002 113.01 159.399 112.938C159.797 112.867 160.022 112.362 159.901 111.809C159.78 111.256 159.365 110.861 158.967 110.932C158.57 111.003 158.345 111.509 158.466 112.062Z" fill="#263238"/>
<path d="M158.801 110.995L160.175 110.347C160.175 110.347 159.648 111.524 158.801 110.995Z" fill="#263238"/>
<path d="M156.105 113.452C156.919 114.623 157.904 115.686 159.034 116.612C158.771 116.876 158.447 117.084 158.085 117.22C157.724 117.357 157.334 117.419 156.944 117.402L156.105 113.452Z" fill="#ED847E"/>
<path d="M154.136 120.017C152.858 120.032 151.622 119.599 150.68 118.808C150.652 118.782 150.637 118.746 150.637 118.709C150.637 118.672 150.652 118.637 150.68 118.611C150.709 118.585 150.748 118.571 150.788 118.571C150.829 118.571 150.867 118.585 150.896 118.611C151.478 119.079 152.172 119.416 152.923 119.593C153.674 119.77 154.459 119.783 155.216 119.63C155.255 119.623 155.295 119.631 155.328 119.652C155.36 119.673 155.382 119.705 155.389 119.74C155.396 119.776 155.387 119.813 155.364 119.842C155.342 119.872 155.307 119.892 155.268 119.898C154.897 119.975 154.517 120.014 154.136 120.017Z" fill="#263238"/>
<path d="M147.474 111.145C147.42 111.143 147.366 111.129 147.319 111.106C147.25 111.068 147.2 111.007 147.181 110.936C147.161 110.864 147.174 110.789 147.215 110.726C147.501 110.282 147.898 109.907 148.375 109.633C148.851 109.358 149.393 109.191 149.954 109.146C150.033 109.146 150.11 109.174 150.168 109.224C150.226 109.274 150.26 109.342 150.265 109.415C150.266 109.451 150.259 109.487 150.245 109.521C150.231 109.555 150.21 109.586 150.182 109.613C150.155 109.639 150.122 109.66 150.086 109.675C150.05 109.69 150.011 109.698 149.971 109.699C149.508 109.746 149.063 109.893 148.674 110.128C148.285 110.363 147.962 110.679 147.733 111.05C147.702 111.084 147.662 111.11 147.616 111.127C147.571 111.143 147.522 111.149 147.474 111.145Z" fill="#263238"/>
<path d="M160.376 108.917C160.328 108.929 160.277 108.929 160.229 108.917C159.826 108.7 159.373 108.573 158.906 108.545C158.439 108.518 157.972 108.591 157.542 108.759C157.465 108.795 157.376 108.801 157.294 108.777C157.212 108.752 157.144 108.699 157.105 108.629C157.066 108.559 157.06 108.477 157.086 108.402C157.113 108.328 157.171 108.266 157.248 108.23C157.765 108.016 158.332 107.919 158.899 107.948C159.466 107.977 160.017 108.13 160.505 108.396C160.54 108.413 160.57 108.437 160.594 108.465C160.619 108.493 160.637 108.525 160.647 108.56C160.658 108.594 160.66 108.631 160.655 108.666C160.65 108.702 160.637 108.736 160.618 108.767C160.596 108.81 160.562 108.846 160.519 108.873C160.477 108.899 160.427 108.915 160.376 108.917Z" fill="#263238"/>
<path d="M143.087 186.882L149.999 187.325L146.88 194.079C146.88 194.079 141.108 192.412 140.875 188.549L143.087 186.882Z" fill="#FFC3BD"/>
<path d="M152.65 191.148L149.306 195.762L146.887 194.079L150.023 187.325L152.65 191.148Z" fill="#FFC3BD"/>
<path d="M151.934 112.227L153.307 111.58C153.307 111.58 152.78 112.757 151.934 112.227Z" fill="#263238"/>
</svg>
